<svg width="260" height="182" viewBox="0 0 260 182" fill="none" xmlns="http://www.w3.org/2000/svg">
<path d="M108.1 19.9C116.5 11.2 128.2 5.7 141.1 5.7C158.3 5.7 173.2 15.3 181.2 29.5C188.1 26.4 195.8 24.7 203.9 24.7C234.9 24.7 259.9 50 259.9 81.2C259.9 112.4 234.8 137.7 203.9 137.7C200.1 137.7 196.4 137.3 192.9 136.6C185.9 149.1 172.5 157.6 157.1 157.6C150.7 157.6 144.6 156.1 139.2 153.5C132.1 170.2 115.5 182 96.2 182C76.1 182 58.9 169.3 52.3 151.4C49.4 152 46.4 152.3 43.4 152.3C19.4 152.3 0 132.7 0 108.4C0 92.2 8.7 78 21.7 70.4C19 64.3 17.5 57.5 17.5 50.3C17.4 22.6 40.1 0 67.9 0C84.3 0 98.9 7.8 108.1 19.9Z" fill="white"/>
<path d="M37.6 94.4L38.7 91.5C38.9 91 39.2 91.2 39.4 91.3C39.7 91.5 39.9 91.6 40.3 91.9C43.4 93.9 46.3 93.9 47.2 93.9C49.5 93.9 51 92.7 51 91V90.9C51 89.1 48.8 88.4 46.2 87.6L45.6 87.4C42.1 86.4 38.3 84.9 38.3 80.5V80.4C38.3 76.2 41.7 73.2 46.6 73.2H47.1C50 73.2 52.7 74 54.7 75.3C54.9 75.4 55.1 75.6 55 75.9C54.9 76.2 54 78.5 53.9 78.8C53.7 79.3 53.2 79 53.2 79C51.4 78 48.7 77.3 46.4 77.3C44.3 77.3 43 78.4 43 79.9V80C43 81.7 45.3 82.5 47.9 83.3L48.4 83.4C51.9 84.5 55.6 86 55.6 90.3V90.4C55.6 95 52.3 97.8 47 97.8C44.4 97.8 41.9 97.4 39.2 96C38.7 95.7 38.2 95.5 37.7 95.1C37.6 94.9 37.4 94.8 37.6 94.4ZM115.6 94.4L116.7 91.5C116.9 91 117.3 91.2 117.4 91.3C117.7 91.5 117.9 91.6 118.3 91.9C121.4 93.9 124.3 93.9 125.2 93.9C127.5 93.9 129 92.7 129 91V90.9C129 89.1 126.8 88.4 124.2 87.6L123.6 87.4C120.1 86.4 116.3 84.9 116.3 80.5V80.4C116.3 76.2 119.7 73.2 124.6 73.2H125.1C128 73.2 130.7 74 132.7 75.3C132.9 75.4 133.1 75.6 133 75.9C132.9 76.2 132 78.5 131.9 78.8C131.7 79.3 131.2 79 131.2 79C129.4 78 126.7 77.3 124.4 77.3C122.3 77.3 121 78.4 121 79.9V80C121 81.7 123.3 82.5 125.9 83.3L126.4 83.4C129.9 84.5 133.6 86 133.6 90.3V90.4C133.6 95 130.3 97.8 125 97.8C122.4 97.8 119.9 97.4 117.2 96C116.7 95.7 116.2 95.5 115.7 95.1C115.7 94.9 115.5 94.8 115.6 94.4ZM173.4 80.7C173.8 82.2 174.1 83.8 174.1 85.5C174.1 87.2 173.9 88.8 173.4 90.3C173 91.8 172.3 93.1 171.4 94.2C170.5 95.3 169.3 96.2 168 96.8C166.6 97.4 165 97.7 163.2 97.7C161.4 97.7 159.8 97.4 158.4 96.8C157 96.2 155.9 95.3 155 94.2C154.1 93.1 153.4 91.8 153 90.3C152.6 88.8 152.3 87.2 152.3 85.5C152.3 83.8 152.5 82.2 153 80.7C153.4 79.2 154.1 77.9 155 76.8C155.9 75.7 157.1 74.8 158.4 74.2C159.8 73.6 161.4 73.2 163.2 73.2C165 73.2 166.6 73.5 168 74.2C169.4 74.8 170.5 75.7 171.4 76.8C172.3 77.9 173 79.2 173.4 80.7ZM168.9 85.4C168.9 82.8 168.4 80.8 167.5 79.4C166.6 78 165.1 77.3 163.2 77.3C161.2 77.3 159.8 78 158.9 79.4C158 80.8 157.5 82.8 157.5 85.4C157.5 88 158 90 158.9 91.5C159.8 92.9 161.2 93.6 163.2 93.6C165.2 93.6 166.6 92.9 167.5 91.5C168.5 90.1 168.9 88 168.9 85.4ZM210 92.9L211.1 95.9C211.2 96.3 210.9 96.4 210.9 96.4C209.2 97.1 206.9 97.5 204.6 97.5C200.7 97.5 197.8 96.4 195.8 94.2C193.8 92 192.8 89 192.8 85.3C192.8 83.6 193 82 193.5 80.5C194 79 194.7 77.7 195.7 76.6C196.7 75.5 197.9 74.6 199.3 74C200.7 73.4 202.4 73 204.3 73C205.6 73 206.7 73.1 207.6 73.2C208.6 73.4 210 73.7 210.6 74C210.7 74 211 74.2 210.9 74.5C210.5 75.7 210.2 76.5 209.8 77.5C209.6 78 209.3 77.8 209.3 77.8C207.8 77.3 206.4 77.1 204.6 77.1C202.4 77.1 200.7 77.8 199.7 79.3C198.6 80.7 198 82.6 198 85.2C198 88 198.7 90 199.9 91.3C201.1 92.6 202.8 93.2 205 93.2C205.9 93.2 206.7 93.1 207.4 93C208.1 92.9 208.8 92.7 209.5 92.4C209.4 92.6 209.8 92.5 210 92.9ZM232.7 79.8C233.7 83.2 233.2 86.1 233.1 86.3C233.1 86.7 232.7 86.7 232.7 86.7H217.6C217.7 89 218.2 90.6 219.4 91.7C220.5 92.8 222.2 93.5 224.6 93.5C228.2 93.5 229.7 92.8 230.8 92.4C230.8 92.4 231.2 92.3 231.4 92.7L232.4 95.5C232.6 96 232.4 96.1 232.3 96.2C231.4 96.7 229.1 97.7 224.7 97.7C222.6 97.7 220.7 97.4 219.2 96.8C217.7 96.2 216.4 95.4 215.4 94.3C214.4 93.2 213.7 91.9 213.2 90.5C212.7 89 212.5 87.4 212.5 85.7C212.5 84 212.7 82.4 213.2 80.9C213.6 79.4 214.3 78.1 215.2 77C216.1 75.9 217.3 75 218.7 74.4C220.1 73.7 221.8 73.4 223.7 73.4C225.3 73.4 226.8 73.7 228 74.3C228.9 74.7 229.9 75.4 230.9 76.5C231.4 76.9 232.3 78.4 232.7 79.8ZM217.7 83H228.4C228.3 81.6 228 80.4 227.4 79.4C226.5 78 225.2 77.2 223.2 77.2C221.2 77.2 219.8 78 218.9 79.4C218.3 80.3 218 81.5 217.7 83ZM112 79.8C113 83.2 112.5 86.1 112.5 86.3C112.5 86.7 112.1 86.7 112.1 86.7H97C97.1 89 97.6 90.6 98.8 91.7C99.9 92.8 101.6 93.5 104 93.5C107.6 93.5 109.1 92.8 110.2 92.4C110.2 92.4 110.6 92.3 110.8 92.7L111.8 95.5C112 96 111.8 96.1 111.7 96.2C110.8 96.7 108.5 97.7 104.1 97.7C102 97.7 100.1 97.4 98.6 96.8C97.1 96.2 95.8 95.4 94.8 94.3C93.8 93.2 93.1 91.9 92.6 90.5C92.1 89 91.9 87.4 91.9 85.7C91.9 84 92.1 82.4 92.6 80.9C93 79.4 93.7 78.1 94.6 77C95.5 75.9 96.7 75 98.1 74.4C99.5 73.7 101.2 73.4 103.1 73.4C104.7 73.4 106.2 73.7 107.4 74.3C108.3 74.7 109.3 75.4 110.3 76.5C110.7 76.9 111.7 78.4 112 79.8ZM97 83H107.8C107.7 81.6 107.4 80.4 106.8 79.4C105.9 78 104.6 77.2 102.6 77.2C100.6 77.2 99.2 78 98.3 79.4C97.6 80.3 97.3 81.5 97 83ZM70.5 82.2C70.5 82.2 71.7 82.3 73 82.5V81.9C73 79.9 72.6 78.9 71.8 78.3C71 77.7 69.7 77.3 68.1 77.3C68.1 77.3 64.4 77.3 61.5 78.8C61.4 78.9 61.3 78.9 61.3 78.9C61.3 78.9 60.9 79 60.8 78.7L59.7 75.8C59.5 75.4 59.8 75.2 59.8 75.2C61.2 74.1 64.4 73.5 64.4 73.5C65.5 73.3 67.3 73.1 68.4 73.1C71.4 73.1 73.7 73.8 75.3 75.2C76.9 76.6 77.7 78.8 77.7 81.9V95.7C77.7 95.7 77.7 96.1 77.4 96.2C77.4 96.2 76.8 96.4 76.3 96.5C75.8 96.6 74 97 72.5 97.2C71 97.5 69.5 97.6 67.9 97.6C66.4 97.6 65.1 97.5 63.9 97.2C62.7 96.9 61.7 96.5 60.8 95.9C60 95.3 59.3 94.5 58.8 93.5C58.3 92.6 58.1 91.4 58.1 90.1C58.1 88.8 58.4 87.6 58.9 86.6C59.4 85.6 60.2 84.8 61.1 84.1C62 83.4 63.1 83 64.2 82.6C65.4 82.3 66.6 82.1 67.9 82.1C69.1 82.2 69.9 82.2 70.5 82.2ZM64.5 92.8C64.5 92.8 65.9 93.9 68.9 93.7C71.1 93.6 73 93.2 73 93.2V86.3C73 86.3 71.1 86 68.9 86C65.8 86 64.5 87.1 64.5 87.1C63.6 87.7 63.2 88.7 63.2 90C63.2 90.8 63.4 91.5 63.7 92C63.8 92.2 63.9 92.4 64.5 92.8ZM192 74.5C191.9 74.9 191.1 77 190.9 77.7C190.8 78 190.6 78.1 190.3 78.1C190.3 78.1 189.4 77.9 188.6 77.9C188.1 77.9 187.3 78 186.6 78.2C185.9 78.4 185.3 78.8 184.7 79.3C184.1 79.8 183.7 80.6 183.4 81.5C183.1 82.4 182.9 83.9 182.9 85.5V96.7C182.9 97 182.7 97.2 182.4 97.2H178.4C178.1 97.2 177.9 97 177.9 96.7V74.2C177.9 73.9 178.1 73.7 178.3 73.7H182.2C182.5 73.7 182.6 73.9 182.6 74.2V76C183.2 75.2 184.2 74.5 185.1 74.1C186 73.7 187.1 73.4 189 73.5C190 73.6 191.3 73.8 191.5 73.9C191.9 74 192.1 74.1 192 74.5ZM154.9 64.1C155 64.1 155.3 64.3 155.2 64.6L154 67.8C153.9 68 153.8 68.2 153.3 68C153.2 68 153 67.9 152.5 67.8C152.2 67.7 151.7 67.7 151.3 67.7C150.7 67.7 150.2 67.8 149.7 67.9C149.2 68 148.8 68.3 148.4 68.7C148 69.1 147.6 69.6 147.3 70.3C146.7 71.9 146.5 73.6 146.5 73.7H151.3C151.7 73.7 151.8 73.9 151.8 74.2L151.2 77.3C151.1 77.8 150.7 77.7 150.7 77.7H145.7L142.5 97C142.1 99 141.7 100.7 141.2 102.1C140.7 103.5 140.1 104.5 139.2 105.5C138.4 106.4 137.5 107.1 136.4 107.4C135.4 107.8 134.1 108 132.7 108C132 108 131.3 108 130.5 107.8C129.9 107.7 129.6 107.6 129.1 107.4C128.9 107.3 128.8 107.1 128.9 106.8C129 106.5 129.9 104.1 130 103.7C130.2 103.3 130.5 103.5 130.5 103.5C130.8 103.6 131 103.7 131.3 103.8C131.7 103.9 132.1 103.9 132.5 103.9C133.2 103.9 133.8 103.8 134.3 103.6C134.9 103.4 135.3 103 135.7 102.5C136.1 102 136.4 101.3 136.8 100.4C137.1 99.5 137.4 98.2 137.7 96.7L141.1 77.8H137.8C137.4 77.8 137.3 77.6 137.3 77.3L137.9 74.2C138 73.7 138.4 73.8 138.4 73.8H141.8L142 72.8C142.5 69.8 143.5 67.5 145 66C146.5 64.5 148.7 63.7 151.4 63.7C152.2 63.7 152.9 63.8 153.5 63.9C153.9 63.8 154.4 63.9 154.9 64.1ZM87.5 96.6C87.5 96.9 87.3 97.1 87.1 97.1H83.1C82.8 97.1 82.7 96.9 82.7 96.6V64.5C82.7 64.3 82.9 64 83.1 64H87.1C87.4 64 87.5 64.2 87.5 64.5V96.6Z" fill="#00A1E0"/>
</svg>
